<svg xmlns:dc="http://purl.org/dc/elements/1.1/" xmlns:cc="http://creativecommons.org/ns#" xmlns:rdf="http://www.w3.org/1999/02/22-rdf-syntax-ns#" xmlns:svg="http://www.w3.org/2000/svg" xmlns="http://www.w3.org/2000/svg" xmlns:sodipodi="http://sodipodi.sourceforge.net/DTD/sodipodi-0.dtd" xmlns:inkscape="http://www.inkscape.org/namespaces/inkscape" id="svg2249" sodipodi:version="0.32" inkscape:version="0.46" width="750" height="500" version="1.0" sodipodi:docbase="C:\Documents and Settings\Javier\Mis documentos\Javi" sodipodi:docname="Bandera_Badalona.svg" inkscape:output_extension="org.inkscape.output.svg.inkscape">
  <metadata id="metadata2254">
    <rdf:RDF>
      <cc:Work rdf:about="">
        <dc:format>image/svg+xml</dc:format>
        <dc:type rdf:resource="http://purl.org/dc/dcmitype/StillImage"/>
      </cc:Work>
    </rdf:RDF>
  </metadata>
  <defs id="defs2252">
    <inkscape:perspective sodipodi:type="inkscape:persp3d" inkscape:vp_x="0 : 100 : 1" inkscape:vp_y="0 : 1000 : 0" inkscape:vp_z="292 : 100 : 1" inkscape:persp3d-origin="146 : 66.666667 : 1" id="perspective17"/>
  </defs>
  <sodipodi:namedview inkscape:window-height="744" inkscape:window-width="1280" inkscape:pageshadow="2" inkscape:pageopacity="0.0" guidetolerance="10.0" gridtolerance="10.0" objecttolerance="10.0" borderopacity="1.0" bordercolor="#666666" pagecolor="#ffffff" id="base" inkscape:zoom="0.51699914" inkscape:cx="393.36454" inkscape:cy="249.01058" inkscape:window-x="-4" inkscape:window-y="-4" inkscape:current-layer="svg2249" showgrid="false" borderlayer="true" showguides="true" inkscape:guide-bbox="true"/>
  <rect y="0" x="375" height="250" width="375" id="rect3186" style="opacity:0.98999999000000005;fill:#ffffff;fill-opacity:1;stroke:none;stroke-width:2.03133869000000010;stroke-miterlimit:4;stroke-dasharray:none;stroke-opacity:1"/>
  <rect y="250.31593" x="0" height="250" width="375" id="rect3188" style="opacity:0.98999999000000005;fill:#ffffff;fill-opacity:1;stroke:none;stroke-width:2.03133869000000010;stroke-miterlimit:4;stroke-dasharray:none;stroke-opacity:1"/>
  <path style="opacity:0.98999999;fill:#0f47af;fill-opacity:1;fill-rule:nonzero;stroke:none;stroke-width:60;stroke-linecap:round;stroke-linejoin:round;marker:none;marker-start:none;marker-mid:none;marker-end:none;stroke-miterlimit:4;stroke-dasharray:none;stroke-dashoffset:0;stroke-opacity:1;visibility:visible;display:inline;overflow:visible;enable-background:accumulate" d="M 1.5625 253.1875 C 1.026987 253.1875 0.5288696 253.28829 0 253.3125 L 0 314.9375 C 0.51918942 314.91092 1.0320652 314.875 1.5625 314.875 C 2.6344825 314.87499 3.6746699 314.9356 4.71875 315.03125 C 5.7628304 315.12691 6.8015382 315.25086 7.8125 315.4375 C 8.8234619 315.62413 9.8398632 315.85211 10.8125 316.125 C 11.785135 316.39788 12.727157 316.70807 13.65625 317.0625 C 14.585343 317.41694 15.494662 317.81871 16.375 318.25 C 17.255339 318.68131 18.111127 319.1528 18.9375 319.65625 C 19.763872 320.15973 20.545306 320.71033 21.3125 321.28125 C 22.079694 321.85215 22.828452 322.46006 23.53125 323.09375 C 24.234047 323.72744 24.898056 324.37075 25.53125 325.0625 C 26.164446 325.75425 26.754126 326.47366 27.3125 327.21875 C 27.870878 327.96387 28.396656 328.7375 28.875 329.53125 C 29.353343 330.32502 29.7944 331.16227 30.1875 332 C 30.580601 332.83771 30.947357 333.68552 31.25 334.5625 C 31.552644 335.43947 31.793023 336.33847 32 337.25 C 32.206977 338.16155 32.362655 339.08984 32.46875 340.03125 C 32.574847 340.97265 32.625 341.90844 32.625 342.875 C 32.625 343.26971 32.580449 343.67176 32.5625 344.0625 L 32.65625 344.0625 C 33.330583 358.99116 46.996979 370.90623 63.71875 370.90625 C 80.440525 370.90625 94.076458 358.99115 94.75 344.0625 L 94.84375 344.0625 C 94.825797 343.67177 94.78125 343.2697 94.78125 342.875 C 94.78125 341.90845 94.831402 340.97266 94.9375 340.03125 C 95.043591 339.08983 95.199274 338.16154 95.40625 337.25 C 95.613227 336.33848 95.853605 335.43947 96.15625 334.5625 C 96.458891 333.68552 96.825649 332.83772 97.21875 332 C 97.611847 331.16226 98.052907 330.32502 98.53125 329.53125 C 99.009603 328.7375 99.535381 327.96386 100.09375 327.21875 C 100.65213 326.47367 101.2418 325.75425 101.875 325.0625 C 102.5082 324.37075 103.17221 323.72744 103.875 323.09375 C 104.57779 322.46006 105.32656 321.85216 106.09375 321.28125 C 106.86094 320.71032 107.64238 320.15972 108.46875 319.65625 C 109.29513 319.15281 110.15091 318.68132 111.03125 318.25 C 111.91158 317.8187 112.82091 317.41695 113.75 317.0625 C 114.6791 316.70806 115.62111 316.39788 116.59375 316.125 C 117.56639 315.85211 118.58279 315.62412 119.59375 315.4375 C 120.6047 315.25087 121.64341 315.12692 122.6875 315.03125 C 123.73157 314.93559 124.77177 314.875 125.84375 314.875 C 126.91573 314.87499 127.95579 314.9356 129 315.03125 C 130.0442 315.12691 131.08257 315.25086 132.09375 315.4375 C 133.10496 315.62413 134.1208 315.85211 135.09375 316.125 C 136.0667 316.39788 137.00801 316.70807 137.9375 317.0625 C 138.86697 317.41694 139.77546 317.81871 140.65625 318.25 C 141.53705 318.68131 142.39189 319.1528 143.21875 319.65625 C 144.04562 320.15973 144.85731 320.71033 145.625 321.28125 C 146.39271 321.85215 147.10919 322.46006 147.8125 323.09375 C 148.51582 323.72744 149.17878 324.37075 149.8125 325.0625 C 150.44618 325.75425 151.06615 326.47366 151.625 327.21875 C 152.18387 327.96387 152.70872 328.7375 153.1875 329.53125 C 153.66631 330.32502 154.1065 331.16227 154.5 332 C 154.8935 332.83771 155.22829 333.68552 155.53125 334.5625 C 155.83422 335.43947 156.07405 336.33847 156.28125 337.25 C 156.48845 338.16155 156.64379 339.08984 156.75 340.03125 C 156.85623 340.97265 156.9375 341.90844 156.9375 342.875 C 156.9375 343.26971 156.86172 343.67176 156.84375 344.0625 L 156.96875 344.0625 C 157.64229 358.99116 171.27821 370.90623 188 370.90625 C 204.72178 370.90625 218.35689 358.99115 219.03125 344.0625 L 219.125 344.0625 C 219.10704 343.67177 219.0625 343.2697 219.0625 342.875 C 219.0625 341.90845 219.1439 340.97266 219.25 340.03125 C 219.35609 339.08983 219.51177 338.16154 219.71875 337.25 C 219.92573 336.33848 220.16611 335.43947 220.46875 334.5625 C 220.7714 333.68552 221.10689 332.83772 221.5 332 C 221.89309 331.16226 222.33417 330.32502 222.8125 329.53125 C 223.29084 328.7375 223.81662 327.96386 224.375 327.21875 C 224.93337 326.47367 225.52305 325.75425 226.15625 325.0625 C 226.78945 324.37075 227.48471 323.72744 228.1875 323.09375 C 228.89031 322.46006 229.60781 321.85216 230.375 321.28125 C 231.1422 320.71032 231.95488 320.15972 232.78125 319.65625 C 233.60762 319.15281 234.43217 318.68132 235.3125 318.25 C 236.19284 317.8187 237.1334 317.41695 238.0625 317.0625 C 238.99159 316.70806 239.93362 316.39788 240.90625 316.125 C 241.87889 315.85211 242.86403 315.62412 243.875 315.4375 C 244.88595 315.25087 245.92467 315.12692 246.96875 315.03125 C 248.01283 314.93559 249.05302 314.875 250.125 314.875 C 251.19698 314.87499 252.26842 314.9356 253.3125 315.03125 C 254.35658 315.12691 255.39529 315.25086 256.40625 315.4375 C 257.41721 315.62413 258.40235 315.85211 259.375 316.125 C 260.34763 316.39788 261.28966 316.70807 262.21875 317.0625 C 263.14785 317.41694 264.05715 317.81871 264.9375 318.25 C 265.81782 318.68131 266.67364 319.1528 267.5 319.65625 C 268.32637 320.15973 269.13907 320.71033 269.90625 321.28125 C 270.67345 321.85215 271.39096 322.46006 272.09375 323.09375 C 272.79654 323.72744 273.46055 324.37075 274.09375 325.0625 C 274.72695 325.75425 275.34787 326.47366 275.90625 327.21875 C 276.46462 327.96387 276.99041 328.7375 277.46875 329.53125 C 277.94711 330.32502 278.38816 331.16227 278.78125 332 C 279.17435 332.83771 279.50985 333.68552 279.8125 334.5625 C 280.11514 335.43947 280.35553 336.33847 280.5625 337.25 C 280.76948 338.16155 280.92515 339.08984 281.03125 340.03125 C 281.13735 340.97265 281.21875 341.90844 281.21875 342.875 C 281.21874 343.26971 281.14296 343.67176 281.125 344.0625 L 281.25 344.0625 C 281.92433 358.99116 295.55947 370.90623 312.28125 370.90625 C 329.00303 370.90625 342.63895 358.99115 343.3125 344.0625 L 343.40625 344.0625 C 343.38825 343.67177 343.34375 343.2697 343.34375 342.875 C 343.34376 341.90845 343.42503 340.97266 343.53125 340.03125 C 343.63744 339.08983 343.76155 338.16154 343.96875 337.25 C 344.17596 336.33848 344.44703 335.43947 344.75 334.5625 C 345.05294 333.68552 345.38775 332.83772 345.78125 332 C 346.17476 331.16226 346.61495 330.32502 347.09375 329.53125 C 347.57254 328.7375 348.09738 327.96386 348.65625 327.21875 C 349.2151 326.47367 349.8038 325.75425 350.4375 325.0625 C 351.07122 324.37075 351.76543 323.72744 352.46875 323.09375 C 353.17207 322.46006 353.88853 321.85216 354.65625 321.28125 C 355.42393 320.71032 356.23564 320.15972 357.0625 319.65625 C 357.88937 319.15281 358.74422 318.68132 359.625 318.25 C 360.50579 317.8187 361.41426 317.41695 362.34375 317.0625 C 363.27323 316.70806 364.21455 316.39788 365.1875 316.125 C 366.16045 315.85211 367.1763 315.62412 368.1875 315.4375 C 369.19869 315.25087 370.20581 315.12692 371.25 315.03125 C 372.29422 314.93559 373.36553 314.875 374.4375 314.875 C 374.62861 314.875 374.81071 314.90254 375 314.90625 L 375 253.25 C 374.80752 253.24682 374.63082 253.1875 374.4375 253.1875 C 357.28579 253.1875 343.34374 265.75383 343.34375 281.21875 C 343.34376 281.34831 343.37307 281.4646 343.375 281.59375 L 343.34375 281.59375 C 343.33102 282.42612 343.27916 283.24906 343.1875 284.0625 C 343.08138 285.004 342.92573 285.932 342.71875 286.84375 C 342.51176 287.75549 342.27139 288.65399 341.96875 289.53125 C 341.66609 290.40853 341.29936 291.28694 340.90625 292.125 C 340.51314 292.96307 340.07208 293.76835 339.59375 294.5625 C 339.11542 295.35666 338.58963 296.12948 338.03125 296.875 C 337.47286 297.62053 336.88321 298.33906 336.25 299.03125 C 335.6168 299.72347 334.9528 300.39711 334.25 301.03125 C 333.54719 301.66541 332.79844 302.27236 332.03125 302.84375 C 331.26406 303.41513 330.48262 303.9336 329.65625 304.4375 C 328.82986 304.9414 327.97407 305.41207 327.09375 305.84375 C 326.2134 306.27546 325.3041 306.67644 324.375 307.03125 C 323.44592 307.38603 322.50389 307.6956 321.53125 307.96875 C 320.5586 308.24194 319.54221 308.46942 318.53125 308.65625 C 317.52029 308.84307 316.51284 308.99798 315.46875 309.09375 C 314.42467 309.18953 313.35323 309.25 312.28125 309.25 C 311.20927 309.24999 310.16921 309.18952 309.125 309.09375 C 308.08079 308.99799 307.04244 308.84306 306.03125 308.65625 C 305.02006 308.46943 304.03545 308.24193 303.0625 307.96875 C 302.08955 307.69561 301.11698 307.38604 300.1875 307.03125 C 299.258 306.67643 298.34954 306.27546 297.46875 305.84375 C 296.58798 305.41207 295.73311 304.94141 294.90625 304.4375 C 294.0794 303.93359 293.26769 303.41514 292.5 302.84375 C 291.73228 302.27235 291.01581 301.66541 290.3125 301.03125 C 289.60917 300.39711 288.94622 299.72347 288.3125 299.03125 C 287.67882 298.33906 287.05885 297.62054 286.5 296.875 C 285.94113 296.12947 285.41628 295.35666 284.9375 294.5625 C 284.45871 293.76835 284.04975 292.96308 283.65625 292.125 C 283.26276 291.28693 282.89672 290.40852 282.59375 289.53125 C 282.29077 288.654 282.05096 287.7555 281.84375 286.84375 C 281.63656 285.93199 281.48121 285.004 281.375 284.0625 C 281.28323 283.24906 281.2315 282.42613 281.21875 281.59375 L 281.1875 281.59375 C 281.18945 281.46458 281.21875 281.34834 281.21875 281.21875 C 281.21874 265.75382 267.27673 253.18749 250.125 253.1875 C 232.97327 253.1875 219.06249 265.75383 219.0625 281.21875 C 219.0625 281.34833 219.09181 281.46459 219.09375 281.59375 L 219.0625 281.59375 C 219.04975 282.42612 218.99801 283.24906 218.90625 284.0625 C 218.80003 285.004 218.6447 285.932 218.4375 286.84375 C 218.2303 287.75549 217.99047 288.65399 217.6875 289.53125 C 217.38454 290.40853 217.0185 291.28694 216.625 292.125 C 216.23151 292.96307 215.7913 293.76835 215.3125 294.5625 C 214.83372 295.35666 214.30887 296.12948 213.75 296.875 C 213.19115 297.62053 212.60244 298.33906 211.96875 299.03125 C 211.33504 299.72347 210.67207 300.39711 209.96875 301.03125 C 209.26542 301.66541 208.51772 302.27236 207.75 302.84375 C 206.98231 303.41513 206.1706 303.9336 205.34375 304.4375 C 204.51689 304.9414 203.69328 305.41207 202.8125 305.84375 C 201.93171 306.27546 201.02324 306.67644 200.09375 307.03125 C 199.16426 307.38603 198.19169 307.6956 197.21875 307.96875 C 196.24579 308.24194 195.2612 308.46942 194.25 308.65625 C 193.23882 308.84307 192.20046 308.99798 191.15625 309.09375 C 190.11205 309.18953 189.07198 309.25 188 309.25 C 186.92802 309.24999 185.85658 309.18952 184.8125 309.09375 C 183.76842 308.99799 182.76096 308.84306 181.75 308.65625 C 180.73904 308.46943 179.72265 308.24193 178.75 307.96875 C 177.77739 307.69561 176.83534 307.38604 175.90625 307.03125 C 174.97715 306.67643 174.06785 306.27546 173.1875 305.84375 C 172.30718 305.41207 171.45137 304.94141 170.625 304.4375 C 169.79863 303.93359 169.01719 303.41514 168.25 302.84375 C 167.48281 302.27235 166.73404 301.66541 166.03125 301.03125 C 165.32846 300.39711 164.66445 299.72347 164.03125 299.03125 C 163.39805 298.33906 162.77713 297.62054 162.21875 296.875 C 161.66037 296.12947 161.16584 295.35666 160.6875 294.5625 C 160.20916 293.76835 159.76809 292.96308 159.375 292.125 C 158.9819 291.28693 158.61515 290.40852 158.3125 289.53125 C 158.00986 288.654 157.76948 287.7555 157.5625 286.84375 C 157.35553 285.93199 157.19985 285.004 157.09375 284.0625 C 157.0021 283.24906 156.95022 282.42613 156.9375 281.59375 L 156.90625 281.59375 C 156.90819 281.46459 156.9375 281.34832 156.9375 281.21875 C 156.9375 265.75382 142.99549 253.18749 125.84375 253.1875 C 108.69203 253.1875 94.781254 265.75383 94.78125 281.21875 C 94.78125 281.34831 94.779301 281.4646 94.78125 281.59375 L 94.75 281.59375 C 94.737267 282.42612 94.716661 283.24906 94.625 284.0625 C 94.518905 285.004 94.363226 285.932 94.15625 286.84375 C 93.949273 287.75549 93.677643 288.65399 93.375 289.53125 C 93.072355 290.40853 92.736851 291.28694 92.34375 292.125 C 91.950651 292.96307 91.509594 293.76835 91.03125 294.5625 C 90.552905 295.35666 90.027125 296.12948 89.46875 296.875 C 88.910378 297.62053 88.320695 298.33906 87.6875 299.03125 C 87.054302 299.72347 86.390298 300.39711 85.6875 301.03125 C 84.984699 301.66541 84.235943 302.27236 83.46875 302.84375 C 82.701558 303.41513 81.888871 303.9336 81.0625 304.4375 C 80.23613 304.9414 79.411588 305.41207 78.53125 305.84375 C 77.650908 306.27546 76.741594 306.67644 75.8125 307.03125 C 74.883404 307.38603 73.910136 307.6956 72.9375 307.96875 C 71.964864 308.24194 70.979711 308.46942 69.96875 308.65625 C 68.957788 308.84307 67.919078 308.99798 66.875 309.09375 C 65.83092 309.18953 64.790732 309.25 63.71875 309.25 C 62.646766 309.24999 61.575452 309.18952 60.53125 309.09375 C 59.487047 308.99799 58.47994 308.84306 57.46875 308.65625 C 56.457561 308.46943 55.4417 308.24193 54.46875 307.96875 C 53.4958 307.69561 52.554479 307.38604 51.625 307.03125 C 50.695518 306.67643 49.787036 306.27546 48.90625 305.84375 C 48.025466 305.41207 47.170612 304.94141 46.34375 304.4375 C 45.516892 303.93359 44.705203 303.41514 43.9375 302.84375 C 43.169795 302.27235 42.453318 301.66541 41.75 301.03125 C 41.046681 300.39711 40.352456 299.72347 39.71875 299.03125 C 39.085048 298.33906 38.496363 297.62054 37.9375 296.875 C 37.378637 296.12947 36.85379 295.35666 36.375 294.5625 C 35.896211 293.76835 35.455993 292.96308 35.0625 292.125 C 34.669007 291.28693 34.334212 290.40852 34.03125 289.53125 C 33.728288 288.654 33.457206 287.7555 33.25 286.84375 C 33.042798 285.93199 32.887463 285.004 32.78125 284.0625 C 32.689484 283.24906 32.668999 282.42613 32.65625 281.59375 L 32.625 281.59375 C 32.62695 281.46458 32.625 281.34834 32.625 281.21875 C 32.625 265.75382 18.714228 253.18749 1.5625 253.1875 z M 1.5625 379.71875 C 1.0260299 379.71875 0.52980228 379.85077 0 379.875 L 0 441.46875 C 0.51943801 441.44988 1.0318078 441.40625 1.5625 441.40625 C 2.6344825 441.40626 3.6746699 441.4356 4.71875 441.53125 C 5.7628304 441.62693 6.8015382 441.78211 7.8125 441.96875 C 8.8234619 442.15537 9.8398632 442.38336 10.8125 442.65625 C 11.785135 442.92912 12.727157 443.23932 13.65625 443.59375 C 14.585343 443.94819 15.494662 444.34996 16.375 444.78125 C 17.255339 445.21258 18.111127 445.68405 18.9375 446.1875 C 19.763872 446.69097 20.545306 447.21033 21.3125 447.78125 C 22.079694 448.35218 22.828452 448.96006 23.53125 449.59375 C 24.234047 450.22744 24.898056 450.902 25.53125 451.59375 C 26.164446 452.28549 26.754126 453.00491 27.3125 453.75 C 27.870878 454.49511 28.396656 455.26875 28.875 456.0625 C 29.353343 456.85626 29.7944 457.66227 30.1875 458.5 C 30.580601 459.33773 30.947357 460.18552 31.25 461.0625 C 31.552644 461.93946 31.793023 462.86972 32 463.78125 C 32.206977 464.6928 32.362655 465.62109 32.46875 466.5625 C 32.574847 467.50392 32.625 468.43969 32.625 469.40625 C 32.625 469.80096 32.580449 470.17176 32.5625 470.5625 L 32.65625 470.5625 C 33.330583 485.49115 46.996979 497.43748 63.71875 497.4375 C 80.440525 497.43749 94.076458 485.49115 94.75 470.5625 L 94.84375 470.5625 C 94.825797 470.17176 94.78125 469.80095 94.78125 469.40625 C 94.78125 468.4397 94.831402 467.50391 94.9375 466.5625 C 95.043591 465.6211 95.199274 464.69279 95.40625 463.78125 C 95.613227 462.86973 95.853605 461.93947 96.15625 461.0625 C 96.458891 460.18551 96.825649 459.33772 97.21875 458.5 C 97.611847 457.66228 98.052907 456.85627 98.53125 456.0625 C 99.009603 455.26874 99.535381 454.49511 100.09375 453.75 C 100.65213 453.00491 101.2418 452.2855 101.875 451.59375 C 102.5082 450.90199 103.17221 450.22744 103.875 449.59375 C 104.57779 448.96006 105.32656 448.35216 106.09375 447.78125 C 106.86094 447.21035 107.64238 446.69097 108.46875 446.1875 C 109.29513 445.68405 110.15091 445.21257 111.03125 444.78125 C 111.91158 444.34997 112.82091 443.9482 113.75 443.59375 C 114.6791 443.23931 115.62111 442.92913 116.59375 442.65625 C 117.56639 442.38335 118.58279 442.15537 119.59375 441.96875 C 120.6047 441.78211 121.64341 441.62692 122.6875 441.53125 C 123.73157 441.43561 124.77177 441.40625 125.84375 441.40625 C 126.91573 441.40626 127.95579 441.4356 129 441.53125 C 130.0442 441.62693 131.08257 441.78211 132.09375 441.96875 C 133.10496 442.15537 134.1208 442.38336 135.09375 442.65625 C 136.0667 442.92912 137.00801 443.23932 137.9375 443.59375 C 138.86697 443.94819 139.77546 444.34996 140.65625 444.78125 C 141.53705 445.21258 142.39189 445.68405 143.21875 446.1875 C 144.04562 446.69097 144.85731 447.21033 145.625 447.78125 C 146.39271 448.35218 147.10919 448.96006 147.8125 449.59375 C 148.51582 450.22744 149.17878 450.902 149.8125 451.59375 C 150.44618 452.28549 151.06615 453.00491 151.625 453.75 C 152.18387 454.49511 152.70872 455.26875 153.1875 456.0625 C 153.66631 456.85626 154.1065 457.66227 154.5 458.5 C 154.8935 459.33773 155.22829 460.18552 155.53125 461.0625 C 155.83422 461.93946 156.07405 462.86972 156.28125 463.78125 C 156.48845 464.6928 156.64379 465.62109 156.75 466.5625 C 156.85623 467.50392 156.9375 468.43969 156.9375 469.40625 C 156.9375 469.80096 156.86172 470.17176 156.84375 470.5625 L 156.96875 470.5625 C 157.64229 485.49115 171.27821 497.43748 188 497.4375 C 204.72178 497.43749 218.35689 485.49115 219.03125 470.5625 L 219.125 470.5625 C 219.10704 470.17176 219.0625 469.80095 219.0625 469.40625 C 219.0625 468.4397 219.1439 467.50391 219.25 466.5625 C 219.35609 465.6211 219.51177 464.69279 219.71875 463.78125 C 219.92573 462.86973 220.16611 461.93947 220.46875 461.0625 C 220.7714 460.18551 221.10689 459.33772 221.5 458.5 C 221.89309 457.66228 222.33417 456.85627 222.8125 456.0625 C 223.29084 455.26874 223.81662 454.49511 224.375 453.75 C 224.93337 453.00491 225.52305 452.2855 226.15625 451.59375 C 226.78945 450.90199 227.48471 450.22744 228.1875 449.59375 C 228.89031 448.96006 229.60781 448.35216 230.375 447.78125 C 231.1422 447.21035 231.95488 446.69097 232.78125 446.1875 C 233.60762 445.68405 234.43217 445.21257 235.3125 444.78125 C 236.19284 444.34997 237.1334 443.9482 238.0625 443.59375 C 238.99159 443.23931 239.93362 442.92913 240.90625 442.65625 C 241.87889 442.38335 242.86403 442.15537 243.875 441.96875 C 244.88595 441.78211 245.92467 441.62692 246.96875 441.53125 C 248.01283 441.43561 249.05302 441.40625 250.125 441.40625 C 251.19698 441.40626 252.26842 441.4356 253.3125 441.53125 C 254.35658 441.62693 255.39529 441.78211 256.40625 441.96875 C 257.41721 442.15537 258.40235 442.38336 259.375 442.65625 C 260.34763 442.92912 261.28966 443.23932 262.21875 443.59375 C 263.14785 443.94819 264.05715 444.34996 264.9375 444.78125 C 265.81782 445.21258 266.67364 445.68405 267.5 446.1875 C 268.32637 446.69097 269.13907 447.21033 269.90625 447.78125 C 270.67345 448.35218 271.39096 448.96006 272.09375 449.59375 C 272.79654 450.22744 273.46055 450.902 274.09375 451.59375 C 274.72695 452.28549 275.34787 453.00491 275.90625 453.75 C 276.46462 454.49511 276.99041 455.26875 277.46875 456.0625 C 277.94711 456.85626 278.38816 457.66227 278.78125 458.5 C 279.17435 459.33773 279.50985 460.18552 279.8125 461.0625 C 280.11514 461.93946 280.35553 462.86972 280.5625 463.78125 C 280.76948 464.6928 280.92515 465.62109 281.03125 466.5625 C 281.13735 467.50392 281.21875 468.43969 281.21875 469.40625 C 281.21874 469.80096 281.14296 470.17176 281.125 470.5625 L 281.25 470.5625 C 281.92433 485.49115 295.55947 497.43748 312.28125 497.4375 C 329.00303 497.43749 342.63895 485.49115 343.3125 470.5625 L 343.40625 470.5625 C 343.38825 470.17176 343.34375 469.80095 343.34375 469.40625 C 343.34376 468.4397 343.42503 467.50391 343.53125 466.5625 C 343.63744 465.6211 343.76155 464.69279 343.96875 463.78125 C 344.17596 462.86973 344.44703 461.93947 344.75 461.0625 C 345.05294 460.18551 345.38775 459.33772 345.78125 458.5 C 346.17476 457.66228 346.61495 456.85627 347.09375 456.0625 C 347.57254 455.26874 348.09738 454.49511 348.65625 453.75 C 349.2151 453.00491 349.8038 452.2855 350.4375 451.59375 C 351.07122 450.90199 351.76543 450.22744 352.46875 449.59375 C 353.17207 448.96006 353.88853 448.35216 354.65625 447.78125 C 355.42393 447.21035 356.23564 446.69097 357.0625 446.1875 C 357.88937 445.68405 358.74422 445.21257 359.625 444.78125 C 360.50579 444.34997 361.41426 443.9482 362.34375 443.59375 C 363.27323 443.23931 364.21455 442.92913 365.1875 442.65625 C 366.16045 442.38335 367.1763 442.15537 368.1875 441.96875 C 369.19869 441.78211 370.20581 441.62692 371.25 441.53125 C 372.29422 441.43561 373.36553 441.40625 374.4375 441.40625 C 374.62867 441.40625 374.81065 441.43542 375 441.4375 L 375 379.78125 C 374.80752 379.77808 374.63082 379.71875 374.4375 379.71875 C 357.28579 379.71876 343.34374 392.25383 343.34375 407.71875 C 343.34376 407.84833 343.37307 407.99585 343.375 408.125 L 343.34375 408.125 C 343.33102 408.95739 343.27916 409.78031 343.1875 410.59375 C 343.08138 411.53524 342.92573 412.46325 342.71875 413.375 C 342.51176 414.28676 342.27139 415.18524 341.96875 416.0625 C 341.66609 416.93977 341.29936 417.78694 340.90625 418.625 C 340.51314 419.46309 340.07208 420.2996 339.59375 421.09375 C 339.11542 421.8879 338.58963 422.62948 338.03125 423.375 C 337.47286 424.12055 336.88321 424.87031 336.25 425.5625 C 335.6168 426.25471 334.9528 426.89711 334.25 427.53125 C 333.54719 428.1654 332.79844 428.77236 332.03125 429.34375 C 331.26406 429.91515 330.48262 430.46485 329.65625 430.96875 C 328.82986 431.47267 327.97407 431.94332 327.09375 432.375 C 326.2134 432.8067 325.3041 433.20769 324.375 433.5625 C 323.44592 433.9173 322.50389 434.22685 321.53125 434.5 C 320.5586 434.77318 319.54221 435.00067 318.53125 435.1875 C 317.52029 435.37431 316.51284 435.49798 315.46875 435.59375 C 314.42467 435.68952 313.35323 435.75 312.28125 435.75 C 311.20927 435.74998 310.16921 435.68952 309.125 435.59375 C 308.08079 435.49798 307.04244 435.37431 306.03125 435.1875 C 305.02006 435.00067 304.03545 434.77318 303.0625 434.5 C 302.08955 434.22685 301.11698 433.91729 300.1875 433.5625 C 299.258 433.2077 298.34954 432.80671 297.46875 432.375 C 296.58798 431.94331 295.73311 431.47266 294.90625 430.96875 C 294.0794 430.46486 293.26769 429.91514 292.5 429.34375 C 291.73228 428.77237 291.01581 428.16541 290.3125 427.53125 C 289.60917 426.8971 288.94622 426.25472 288.3125 425.5625 C 287.67882 424.8703 287.05885 424.12054 286.5 423.375 C 285.94113 422.62949 285.41628 421.88791 284.9375 421.09375 C 284.45871 420.29959 284.04975 419.46308 283.65625 418.625 C 283.26276 417.78695 282.89672 416.93977 282.59375 416.0625 C 282.29077 415.18524 282.05096 414.28675 281.84375 413.375 C 281.63656 412.46326 281.48121 411.53525 281.375 410.59375 C 281.28323 409.7803 281.2315 408.95738 281.21875 408.125 L 281.1875 408.125 C 281.18945 407.99585 281.21875 407.84834 281.21875 407.71875 C 281.21874 392.25384 267.27673 379.71874 250.125 379.71875 C 232.97327 379.71876 219.06249 392.25383 219.0625 407.71875 C 219.0625 407.84835 219.09181 407.99584 219.09375 408.125 L 219.0625 408.125 C 219.04975 408.95739 218.99801 409.78031 218.90625 410.59375 C 218.80003 411.53524 218.6447 412.46325 218.4375 413.375 C 218.2303 414.28676 217.99047 415.18524 217.6875 416.0625 C 217.38454 416.93977 217.0185 417.78694 216.625 418.625 C 216.23151 419.46309 215.7913 420.2996 215.3125 421.09375 C 214.83372 421.8879 214.30887 422.62948 213.75 423.375 C 213.19115 424.12055 212.60244 424.87031 211.96875 425.5625 C 211.33504 426.25471 210.67207 426.89711 209.96875 427.53125 C 209.26542 428.1654 208.51772 428.77236 207.75 429.34375 C 206.98231 429.91515 206.1706 430.46485 205.34375 430.96875 C 204.51689 431.47267 203.69328 431.94332 202.8125 432.375 C 201.93171 432.8067 201.02324 433.20769 200.09375 433.5625 C 199.16426 433.9173 198.19169 434.22685 197.21875 434.5 C 196.24579 434.77318 195.2612 435.00067 194.25 435.1875 C 193.23882 435.37431 192.20046 435.49798 191.15625 435.59375 C 190.11205 435.68952 189.07198 435.75 188 435.75 C 186.92802 435.74998 185.85658 435.68952 184.8125 435.59375 C 183.76842 435.49798 182.76096 435.37431 181.75 435.1875 C 180.73904 435.00067 179.72265 434.77318 178.75 434.5 C 177.77739 434.22685 176.83534 433.91729 175.90625 433.5625 C 174.97715 433.2077 174.06785 432.80671 173.1875 432.375 C 172.30718 431.94331 171.45137 431.47266 170.625 430.96875 C 169.79863 430.46486 169.01719 429.91514 168.25 429.34375 C 167.48281 428.77237 166.73404 428.16541 166.03125 427.53125 C 165.32846 426.8971 164.66445 426.25472 164.03125 425.5625 C 163.39805 424.8703 162.77713 424.12054 162.21875 423.375 C 161.66037 422.62949 161.16584 421.88791 160.6875 421.09375 C 160.20916 420.29959 159.76809 419.46308 159.375 418.625 C 158.9819 417.78695 158.61515 416.93977 158.3125 416.0625 C 158.00986 415.18524 157.76948 414.28675 157.5625 413.375 C 157.35553 412.46326 157.19985 411.53525 157.09375 410.59375 C 157.0021 409.7803 156.95022 408.95738 156.9375 408.125 L 156.90625 408.125 C 156.90819 407.99586 156.9375 407.84832 156.9375 407.71875 C 156.9375 392.25384 142.99549 379.71874 125.84375 379.71875 C 108.69203 379.71876 94.781254 392.25383 94.78125 407.71875 C 94.78125 407.84833 94.779301 407.99585 94.78125 408.125 L 94.75 408.125 C 94.737267 408.95739 94.716661 409.78031 94.625 410.59375 C 94.518905 411.53524 94.363226 412.46325 94.15625 413.375 C 93.949273 414.28676 93.677643 415.18524 93.375 416.0625 C 93.072355 416.93977 92.736851 417.78694 92.34375 418.625 C 91.950651 419.46309 91.509594 420.2996 91.03125 421.09375 C 90.552905 421.8879 90.027125 422.62948 89.46875 423.375 C 88.910378 424.12055 88.320695 424.87031 87.6875 425.5625 C 87.054302 426.25471 86.390298 426.89711 85.6875 427.53125 C 84.984699 428.1654 84.235943 428.77236 83.46875 429.34375 C 82.701558 429.91515 81.888871 430.46485 81.0625 430.96875 C 80.23613 431.47267 79.411588 431.94332 78.53125 432.375 C 77.650908 432.8067 76.741594 433.20769 75.8125 433.5625 C 74.883404 433.9173 73.910136 434.22685 72.9375 434.5 C 71.964864 434.77318 70.979711 435.00067 69.96875 435.1875 C 68.957788 435.37431 67.919078 435.49798 66.875 435.59375 C 65.83092 435.68952 64.790732 435.75 63.71875 435.75 C 62.646766 435.74998 61.575452 435.68952 60.53125 435.59375 C 59.487047 435.49798 58.47994 435.37431 57.46875 435.1875 C 56.457561 435.00067 55.4417 434.77318 54.46875 434.5 C 53.4958 434.22685 52.554479 433.91729 51.625 433.5625 C 50.695518 433.2077 49.787036 432.80671 48.90625 432.375 C 48.025466 431.94331 47.170612 431.47266 46.34375 430.96875 C 45.516892 430.46486 44.705203 429.91514 43.9375 429.34375 C 43.169795 428.77237 42.453318 428.16541 41.75 427.53125 C 41.046681 426.8971 40.352456 426.25472 39.71875 425.5625 C 39.085048 424.8703 38.496363 424.12054 37.9375 423.375 C 37.378637 422.62949 36.85379 421.88791 36.375 421.09375 C 35.896211 420.29959 35.455993 419.46308 35.0625 418.625 C 34.669007 417.78695 34.334212 416.93977 34.03125 416.0625 C 33.728288 415.18524 33.457206 414.28675 33.25 413.375 C 33.042798 412.46326 32.887463 411.53525 32.78125 410.59375 C 32.689484 409.7803 32.668999 408.95738 32.65625 408.125 L 32.625 408.125 C 32.62695 407.99585 32.625 407.84834 32.625 407.71875 C 32.625 392.25384 18.714228 379.71874 1.5625 379.71875 z " id="path3390"/>
  <path id="path3399" d="M 376.5625,2.875 C 376.02699,2.875 375.52887,2.97579 375,3 L 375,64.625 C 375.51919,64.59842 376.03207,64.5625 376.5625,64.5625 C 377.63448,64.56249 378.67467,64.6231 379.71875,64.71875 C 380.76283,64.81441 381.80154,64.93836 382.8125,65.125 C 383.82346,65.31163 384.83986,65.53961 385.8125,65.8125 C 386.78514,66.08538 387.72716,66.39557 388.65625,66.75 C 389.58534,67.10444 390.49466,67.50621 391.375,67.9375 C 392.25534,68.36881 393.11113,68.8403 393.9375,69.34375 C 394.76387,69.84723 395.54531,70.39783 396.3125,70.96875 C 397.0797,71.53965 397.82845,72.14756 398.53125,72.78125 C 399.23405,73.41494 399.89806,74.05825 400.53125,74.75 C 401.16445,75.44175 401.75413,76.16116 402.3125,76.90625 C 402.87088,77.65137 403.39666,78.425 403.875,79.21875 C 404.35334,80.01252 404.7944,80.84977 405.1875,81.6875 C 405.5806,82.52521 405.94736,83.37302 406.25,84.25 C 406.55265,85.12697 406.79302,86.025974 407,86.937504 C 407.20698,87.849054 407.36266,88.777344 407.46875,89.718754 C 407.57485,90.660154 407.625,91.595944 407.625,92.562504 C 407.625,92.957214 407.58045,93.359264 407.5625,93.750004 L 407.65625,93.750004 C 408.33058,108.67866 421.99698,120.59373 438.71875,120.59375 C 455.44053,120.59375 469.07646,108.67865 469.75,93.750004 L 469.84375,93.750004 C 469.8258,93.359274 469.78125,92.957204 469.78125,92.562504 C 469.78125,91.595954 469.8314,90.660164 469.9375,89.718754 C 470.04359,88.777334 470.19928,87.849044 470.40625,86.937504 C 470.61323,86.025984 470.85361,85.12697 471.15625,84.25 C 471.45889,83.37302 471.82565,82.52522 472.21875,81.6875 C 472.61185,80.84976 473.05291,80.01252 473.53125,79.21875 C 474.0096,78.425 474.53538,77.65136 475.09375,76.90625 C 475.65213,76.16117 476.2418,75.44175 476.875,74.75 C 477.5082,74.05825 478.17221,73.41494 478.875,72.78125 C 479.57779,72.14756 480.32656,71.53966 481.09375,70.96875 C 481.86094,70.39782 482.64238,69.84722 483.46875,69.34375 C 484.29513,68.84031 485.15091,68.36882 486.03125,67.9375 C 486.91158,67.5062 487.82091,67.10445 488.75,66.75 C 489.6791,66.39556 490.62111,66.08538 491.59375,65.8125 C 492.56639,65.53961 493.58279,65.31162 494.59375,65.125 C 495.6047,64.93837 496.64341,64.81442 497.6875,64.71875 C 498.73157,64.62309 499.77177,64.5625 500.84375,64.5625 C 501.91573,64.56249 502.95579,64.6231 504,64.71875 C 505.0442,64.81441 506.08257,64.93836 507.09375,65.125 C 508.10496,65.31163 509.1208,65.53961 510.09375,65.8125 C 511.0667,66.08538 512.00801,66.39557 512.9375,66.75 C 513.86697,67.10444 514.77546,67.50621 515.65625,67.9375 C 516.53705,68.36881 517.39189,68.8403 518.21875,69.34375 C 519.04562,69.84723 519.85731,70.39783 520.625,70.96875 C 521.39271,71.53965 522.10919,72.14756 522.8125,72.78125 C 523.51582,73.41494 524.17878,74.05825 524.8125,74.75 C 525.44618,75.44175 526.06615,76.16116 526.625,76.90625 C 527.18387,77.65137 527.70872,78.425 528.1875,79.21875 C 528.66631,80.01252 529.1065,80.84977 529.5,81.6875 C 529.8935,82.52521 530.22829,83.37302 530.53125,84.25 C 530.83422,85.12697 531.07405,86.025974 531.28125,86.937504 C 531.48845,87.849054 531.64379,88.777344 531.75,89.718754 C 531.85623,90.660154 531.9375,91.595944 531.9375,92.562504 C 531.9375,92.957214 531.86172,93.359264 531.84375,93.750004 L 531.96875,93.750004 C 532.64229,108.67866 546.27821,120.59373 563,120.59375 C 579.72178,120.59375 593.35689,108.67865 594.03125,93.750004 L 594.125,93.750004 C 594.10704,93.359274 594.0625,92.957204 594.0625,92.562504 C 594.0625,91.595954 594.1439,90.660164 594.25,89.718754 C 594.35609,88.777334 594.51177,87.849044 594.71875,86.937504 C 594.92573,86.025984 595.16611,85.12697 595.46875,84.25 C 595.7714,83.37302 596.10689,82.52522 596.5,81.6875 C 596.89309,80.84976 597.33417,80.01252 597.8125,79.21875 C 598.29084,78.425 598.81662,77.65136 599.375,76.90625 C 599.93337,76.16117 600.52305,75.44175 601.15625,74.75 C 601.78945,74.05825 602.48471,73.41494 603.1875,72.78125 C 603.89031,72.14756 604.60781,71.53966 605.375,70.96875 C 606.1422,70.39782 606.95488,69.84722 607.78125,69.34375 C 608.60762,68.84031 609.43217,68.36882 610.3125,67.9375 C 611.19284,67.5062 612.1334,67.10445 613.0625,66.75 C 613.99159,66.39556 614.93362,66.08538 615.90625,65.8125 C 616.87889,65.53961 617.86403,65.31162 618.875,65.125 C 619.88595,64.93837 620.92467,64.81442 621.96875,64.71875 C 623.01283,64.62309 624.05302,64.5625 625.125,64.5625 C 626.19698,64.56249 627.26842,64.6231 628.3125,64.71875 C 629.35658,64.81441 630.39529,64.93836 631.40625,65.125 C 632.41721,65.31163 633.40235,65.53961 634.375,65.8125 C 635.34763,66.08538 636.28966,66.39557 637.21875,66.75 C 638.14785,67.10444 639.05715,67.50621 639.9375,67.9375 C 640.81782,68.36881 641.67364,68.8403 642.5,69.34375 C 643.32637,69.84723 644.13907,70.39783 644.90625,70.96875 C 645.67345,71.53965 646.39096,72.14756 647.09375,72.78125 C 647.79654,73.41494 648.46055,74.05825 649.09375,74.75 C 649.72695,75.44175 650.34787,76.16116 650.90625,76.90625 C 651.46462,77.65137 651.99041,78.425 652.46875,79.21875 C 652.94711,80.01252 653.38816,80.84977 653.78125,81.6875 C 654.17435,82.52521 654.50985,83.37302 654.8125,84.25 C 655.11514,85.12697 655.35553,86.025974 655.5625,86.937504 C 655.76948,87.849054 655.92515,88.777344 656.03125,89.718754 C 656.13735,90.660154 656.21875,91.595944 656.21875,92.562504 C 656.21874,92.957214 656.14296,93.359264 656.125,93.750004 L 656.25,93.750004 C 656.92433,108.67866 670.55947,120.59373 687.28125,120.59375 C 704.00303,120.59375 717.63895,108.67865 718.3125,93.750004 L 718.40625,93.750004 C 718.38825,93.359274 718.34375,92.957204 718.34375,92.562504 C 718.34376,91.595954 718.42503,90.660164 718.53125,89.718754 C 718.63744,88.777334 718.76155,87.849044 718.96875,86.937504 C 719.17596,86.025984 719.44703,85.12697 719.75,84.25 C 720.05294,83.37302 720.38775,82.52522 720.78125,81.6875 C 721.17476,80.84976 721.61495,80.01252 722.09375,79.21875 C 722.57254,78.425 723.09738,77.65136 723.65625,76.90625 C 724.2151,76.16117 724.8038,75.44175 725.4375,74.75 C 726.07122,74.05825 726.76543,73.41494 727.46875,72.78125 C 728.17207,72.14756 728.88853,71.53966 729.65625,70.96875 C 730.42393,70.39782 731.23564,69.84722 732.0625,69.34375 C 732.88937,68.84031 733.74422,68.36882 734.625,67.9375 C 735.50579,67.5062 736.41426,67.10445 737.34375,66.75 C 738.27323,66.39556 739.21455,66.08538 740.1875,65.8125 C 741.16045,65.53961 742.1763,65.31162 743.1875,65.125 C 744.19869,64.93837 745.20581,64.81442 746.25,64.71875 C 747.29422,64.62309 748.36553,64.5625 749.4375,64.5625 C 749.62861,64.5625 749.81071,64.59004 750,64.59375 L 750,2.9375 C 749.80752,2.93432 749.63082,2.875 749.4375,2.875 C 732.28579,2.875 718.34374,15.44133 718.34375,30.90625 C 718.34376,31.03581 718.37307,31.1521 718.375,31.28125 L 718.34375,31.28125 C 718.33102,32.11362 718.27916,32.93656 718.1875,33.75 C 718.08138,34.6915 717.92573,35.6195 717.71875,36.53125 C 717.51176,37.44299 717.27139,38.34149 716.96875,39.21875 C 716.66609,40.09603 716.29936,40.97444 715.90625,41.8125 C 715.51314,42.65057 715.07208,43.45585 714.59375,44.25 C 714.11542,45.04416 713.58963,45.81698 713.03125,46.5625 C 712.47286,47.30803 711.88321,48.02656 711.25,48.71875 C 710.6168,49.41097 709.9528,50.08461 709.25,50.71875 C 708.54719,51.35291 707.79844,51.95986 707.03125,52.53125 C 706.26406,53.10263 705.48262,53.6211 704.65625,54.125 C 703.82986,54.6289 702.97407,55.09957 702.09375,55.53125 C 701.2134,55.96296 700.3041,56.36394 699.375,56.71875 C 698.44592,57.07353 697.50389,57.3831 696.53125,57.65625 C 695.5586,57.92944 694.54221,58.15692 693.53125,58.34375 C 692.52029,58.53057 691.51284,58.68548 690.46875,58.78125 C 689.42467,58.87703 688.35323,58.9375 687.28125,58.9375 C 686.20927,58.93749 685.16921,58.87702 684.125,58.78125 C 683.08079,58.68549 682.04244,58.53056 681.03125,58.34375 C 680.02006,58.15693 679.03545,57.92943 678.0625,57.65625 C 677.08955,57.38311 676.11698,57.07354 675.1875,56.71875 C 674.258,56.36393 673.34954,55.96296 672.46875,55.53125 C 671.58798,55.09957 670.73311,54.62891 669.90625,54.125 C 669.0794,53.62109 668.26769,53.10264 667.5,52.53125 C 666.73228,51.95985 666.01581,51.35291 665.3125,50.71875 C 664.60917,50.08461 663.94622,49.41097 663.3125,48.71875 C 662.67882,48.02656 662.05885,47.30804 661.5,46.5625 C 660.94113,45.81697 660.41628,45.04416 659.9375,44.25 C 659.45871,43.45585 659.04975,42.65058 658.65625,41.8125 C 658.26276,40.97443 657.89672,40.09602 657.59375,39.21875 C 657.29077,38.3415 657.05096,37.443 656.84375,36.53125 C 656.63656,35.61949 656.48121,34.6915 656.375,33.75 C 656.28323,32.93656 656.2315,32.11363 656.21875,31.28125 L 656.1875,31.28125 C 656.18945,31.15208 656.21875,31.03584 656.21875,30.90625 C 656.21874,15.44132 642.27673,2.87499 625.125,2.875 C 607.97327,2.875 594.06249,15.44133 594.0625,30.90625 C 594.0625,31.03583 594.09181,31.15209 594.09375,31.28125 L 594.0625,31.28125 C 594.04975,32.11362 593.99801,32.93656 593.90625,33.75 C 593.80003,34.6915 593.6447,35.6195 593.4375,36.53125 C 593.2303,37.44299 592.99047,38.34149 592.6875,39.21875 C 592.38454,40.09603 592.0185,40.97444 591.625,41.8125 C 591.23151,42.65057 590.7913,43.45585 590.3125,44.25 C 589.83372,45.04416 589.30887,45.81698 588.75,46.5625 C 588.19115,47.30803 587.60244,48.02656 586.96875,48.71875 C 586.33504,49.41097 585.67207,50.08461 584.96875,50.71875 C 584.26542,51.35291 583.51772,51.95986 582.75,52.53125 C 581.98231,53.10263 581.1706,53.6211 580.34375,54.125 C 579.51689,54.6289 578.69328,55.09957 577.8125,55.53125 C 576.93171,55.96296 576.02324,56.36394 575.09375,56.71875 C 574.16426,57.07353 573.19169,57.3831 572.21875,57.65625 C 571.24579,57.92944 570.2612,58.15692 569.25,58.34375 C 568.23882,58.53057 567.20046,58.68548 566.15625,58.78125 C 565.11205,58.87703 564.07198,58.9375 563,58.9375 C 561.92802,58.93749 560.85658,58.87702 559.8125,58.78125 C 558.76842,58.68549 557.76096,58.53056 556.75,58.34375 C 555.73904,58.15693 554.72265,57.92943 553.75,57.65625 C 552.77739,57.38311 551.83534,57.07354 550.90625,56.71875 C 549.97715,56.36393 549.06785,55.96296 548.1875,55.53125 C 547.30718,55.09957 546.45137,54.62891 545.625,54.125 C 544.79863,53.62109 544.01719,53.10264 543.25,52.53125 C 542.48281,51.95985 541.73404,51.35291 541.03125,50.71875 C 540.32846,50.08461 539.66445,49.41097 539.03125,48.71875 C 538.39805,48.02656 537.77713,47.30804 537.21875,46.5625 C 536.66037,45.81697 536.16584,45.04416 535.6875,44.25 C 535.20916,43.45585 534.76809,42.65058 534.375,41.8125 C 533.9819,40.97443 533.61515,40.09602 533.3125,39.21875 C 533.00986,38.3415 532.76948,37.443 532.5625,36.53125 C 532.35553,35.61949 532.19985,34.6915 532.09375,33.75 C 532.0021,32.93656 531.95022,32.11363 531.9375,31.28125 L 531.90625,31.28125 C 531.90819,31.15209 531.9375,31.03582 531.9375,30.90625 C 531.9375,15.44132 517.99549,2.87499 500.84375,2.875 C 483.69203,2.875 469.78126,15.44133 469.78125,30.90625 C 469.78125,31.03581 469.7793,31.1521 469.78125,31.28125 L 469.75,31.28125 C 469.73727,32.11362 469.71666,32.93656 469.625,33.75 C 469.51891,34.6915 469.36323,35.6195 469.15625,36.53125 C 468.94927,37.44299 468.67764,38.34149 468.375,39.21875 C 468.07236,40.09603 467.73685,40.97444 467.34375,41.8125 C 466.95065,42.65057 466.5096,43.45585 466.03125,44.25 C 465.55291,45.04416 465.02713,45.81698 464.46875,46.5625 C 463.91038,47.30803 463.3207,48.02656 462.6875,48.71875 C 462.0543,49.41097 461.3903,50.08461 460.6875,50.71875 C 459.9847,51.35291 459.23594,51.95986 458.46875,52.53125 C 457.70156,53.10263 456.88887,53.6211 456.0625,54.125 C 455.23613,54.6289 454.41159,55.09957 453.53125,55.53125 C 452.65091,55.96296 451.7416,56.36394 450.8125,56.71875 C 449.88341,57.07353 448.91014,57.3831 447.9375,57.65625 C 446.96487,57.92944 445.97971,58.15692 444.96875,58.34375 C 443.95779,58.53057 442.91908,58.68548 441.875,58.78125 C 440.83092,58.87703 439.79073,58.9375 438.71875,58.9375 C 437.64677,58.93749 436.57545,58.87702 435.53125,58.78125 C 434.48705,58.68549 433.47994,58.53056 432.46875,58.34375 C 431.45756,58.15693 430.4417,57.92943 429.46875,57.65625 C 428.4958,57.38311 427.55448,57.07354 426.625,56.71875 C 425.69552,56.36393 424.78704,55.96296 423.90625,55.53125 C 423.02547,55.09957 422.17061,54.62891 421.34375,54.125 C 420.51689,53.62109 419.7052,53.10264 418.9375,52.53125 C 418.1698,51.95985 417.45332,51.35291 416.75,50.71875 C 416.04668,50.08461 415.35246,49.41097 414.71875,48.71875 C 414.08505,48.02656 413.49636,47.30804 412.9375,46.5625 C 412.37864,45.81697 411.85379,45.04416 411.375,44.25 C 410.89621,43.45585 410.45599,42.65058 410.0625,41.8125 C 409.66901,40.97443 409.33421,40.09602 409.03125,39.21875 C 408.72829,38.3415 408.45721,37.443 408.25,36.53125 C 408.0428,35.61949 407.88746,34.6915 407.78125,33.75 C 407.68949,32.93656 407.669,32.11363 407.65625,31.28125 L 407.625,31.28125 C 407.62695,31.15208 407.625,31.03584 407.625,30.90625 C 407.625,15.44132 393.71423,2.87499 376.5625,2.875 z M 376.5625,129.40625 C 376.02603,129.40625 375.5298,129.53827 375,129.5625 L 375,191.15625 C 375.51944,191.13738 376.03181,191.09375 376.5625,191.09375 C 377.63448,191.09376 378.67467,191.1231 379.71875,191.21875 C 380.76283,191.31443 381.80154,191.46961 382.8125,191.65625 C 383.82346,191.84287 384.83986,192.07086 385.8125,192.34375 C 386.78514,192.61662 387.72716,192.92682 388.65625,193.28125 C 389.58534,193.63569 390.49466,194.03746 391.375,194.46875 C 392.25534,194.90008 393.11113,195.37155 393.9375,195.875 C 394.76387,196.37847 395.54531,196.89783 396.3125,197.46875 C 397.0797,198.03968 397.82845,198.64756 398.53125,199.28125 C 399.23405,199.91494 399.89806,200.5895 400.53125,201.28125 C 401.16445,201.97299 401.75413,202.69241 402.3125,203.4375 C 402.87088,204.18261 403.39666,204.95625 403.875,205.75 C 404.35334,206.54376 404.7944,207.34977 405.1875,208.1875 C 405.5806,209.02523 405.94736,209.87302 406.25,210.75 C 406.55265,211.62696 406.79302,212.55722 407,213.46875 C 407.20698,214.3803 407.36266,215.30859 407.46875,216.25 C 407.57485,217.19142 407.625,218.12719 407.625,219.09375 C 407.625,219.48846 407.58045,219.85926 407.5625,220.25 L 407.65625,220.25 C 408.33058,235.17865 421.99698,247.12498 438.71875,247.125 C 455.44053,247.12499 469.07646,235.17865 469.75,220.25 L 469.84375,220.25 C 469.8258,219.85926 469.78125,219.48845 469.78125,219.09375 C 469.78125,218.1272 469.8314,217.19141 469.9375,216.25 C 470.04359,215.3086 470.19928,214.38029 470.40625,213.46875 C 470.61323,212.55723 470.85361,211.62697 471.15625,210.75 C 471.45889,209.87301 471.82565,209.02522 472.21875,208.1875 C 472.61185,207.34978 473.05291,206.54377 473.53125,205.75 C 474.0096,204.95624 474.53538,204.18261 475.09375,203.4375 C 475.65213,202.69241 476.2418,201.973 476.875,201.28125 C 477.5082,200.58949 478.17221,199.91494 478.875,199.28125 C 479.57779,198.64756 480.32656,198.03966 481.09375,197.46875 C 481.86094,196.89785 482.64238,196.37847 483.46875,195.875 C 484.29513,195.37155 485.15091,194.90007 486.03125,194.46875 C 486.91158,194.03747 487.82091,193.6357 488.75,193.28125 C 489.6791,192.92681 490.62111,192.61663 491.59375,192.34375 C 492.56639,192.07085 493.58279,191.84287 494.59375,191.65625 C 495.6047,191.46961 496.64341,191.31442 497.6875,191.21875 C 498.73157,191.12311 499.77177,191.09375 500.84375,191.09375 C 501.91573,191.09376 502.95579,191.1231 504,191.21875 C 505.0442,191.31443 506.08257,191.46961 507.09375,191.65625 C 508.10496,191.84287 509.1208,192.07086 510.09375,192.34375 C 511.0667,192.61662 512.00801,192.92682 512.9375,193.28125 C 513.86697,193.63569 514.77546,194.03746 515.65625,194.46875 C 516.53705,194.90008 517.39189,195.37155 518.21875,195.875 C 519.04562,196.37847 519.85731,196.89783 520.625,197.46875 C 521.39271,198.03968 522.10919,198.64756 522.8125,199.28125 C 523.51582,199.91494 524.17878,200.5895 524.8125,201.28125 C 525.44618,201.97299 526.06615,202.69241 526.625,203.4375 C 527.18387,204.18261 527.70872,204.95625 528.1875,205.75 C 528.66631,206.54376 529.1065,207.34977 529.5,208.1875 C 529.8935,209.02523 530.22829,209.87302 530.53125,210.75 C 530.83422,211.62696 531.07405,212.55722 531.28125,213.46875 C 531.48845,214.3803 531.64379,215.30859 531.75,216.25 C 531.85623,217.19142 531.9375,218.12719 531.9375,219.09375 C 531.9375,219.48846 531.86172,219.85926 531.84375,220.25 L 531.96875,220.25 C 532.64229,235.17865 546.27821,247.12498 563,247.125 C 579.72178,247.12499 593.35689,235.17865 594.03125,220.25 L 594.125,220.25 C 594.10704,219.85926 594.0625,219.48845 594.0625,219.09375 C 594.0625,218.1272 594.1439,217.19141 594.25,216.25 C 594.35609,215.3086 594.51177,214.38029 594.71875,213.46875 C 594.92573,212.55723 595.16611,211.62697 595.46875,210.75 C 595.7714,209.87301 596.10689,209.02522 596.5,208.1875 C 596.89309,207.34978 597.33417,206.54377 597.8125,205.75 C 598.29084,204.95624 598.81662,204.18261 599.375,203.4375 C 599.93337,202.69241 600.52305,201.973 601.15625,201.28125 C 601.78945,200.58949 602.48471,199.91494 603.1875,199.28125 C 603.89031,198.64756 604.60781,198.03966 605.375,197.46875 C 606.1422,196.89785 606.95488,196.37847 607.78125,195.875 C 608.60762,195.37155 609.43217,194.90007 610.3125,194.46875 C 611.19284,194.03747 612.1334,193.6357 613.0625,193.28125 C 613.99159,192.92681 614.93362,192.61663 615.90625,192.34375 C 616.87889,192.07085 617.86403,191.84287 618.875,191.65625 C 619.88595,191.46961 620.92467,191.31442 621.96875,191.21875 C 623.01283,191.12311 624.05302,191.09375 625.125,191.09375 C 626.19698,191.09376 627.26842,191.1231 628.3125,191.21875 C 629.35658,191.31443 630.39529,191.46961 631.40625,191.65625 C 632.41721,191.84287 633.40235,192.07086 634.375,192.34375 C 635.34763,192.61662 636.28966,192.92682 637.21875,193.28125 C 638.14785,193.63569 639.05715,194.03746 639.9375,194.46875 C 640.81782,194.90008 641.67364,195.37155 642.5,195.875 C 643.32637,196.37847 644.13907,196.89783 644.90625,197.46875 C 645.67345,198.03968 646.39096,198.64756 647.09375,199.28125 C 647.79654,199.91494 648.46055,200.5895 649.09375,201.28125 C 649.72695,201.97299 650.34787,202.69241 650.90625,203.4375 C 651.46462,204.18261 651.99041,204.95625 652.46875,205.75 C 652.94711,206.54376 653.38816,207.34977 653.78125,208.1875 C 654.17435,209.02523 654.50985,209.87302 654.8125,210.75 C 655.11514,211.62696 655.35553,212.55722 655.5625,213.46875 C 655.76948,214.3803 655.92515,215.30859 656.03125,216.25 C 656.13735,217.19142 656.21875,218.12719 656.21875,219.09375 C 656.21874,219.48846 656.14296,219.85926 656.125,220.25 L 656.25,220.25 C 656.92433,235.17865 670.55947,247.12498 687.28125,247.125 C 704.00303,247.12499 717.63895,235.17865 718.3125,220.25 L 718.40625,220.25 C 718.38825,219.85926 718.34375,219.48845 718.34375,219.09375 C 718.34376,218.1272 718.42503,217.19141 718.53125,216.25 C 718.63744,215.3086 718.76155,214.38029 718.96875,213.46875 C 719.17596,212.55723 719.44703,211.62697 719.75,210.75 C 720.05294,209.87301 720.38775,209.02522 720.78125,208.1875 C 721.17476,207.34978 721.61495,206.54377 722.09375,205.75 C 722.57254,204.95624 723.09738,204.18261 723.65625,203.4375 C 724.2151,202.69241 724.8038,201.973 725.4375,201.28125 C 726.07122,200.58949 726.76543,199.91494 727.46875,199.28125 C 728.17207,198.64756 728.88853,198.03966 729.65625,197.46875 C 730.42393,196.89785 731.23564,196.37847 732.0625,195.875 C 732.88937,195.37155 733.74422,194.90007 734.625,194.46875 C 735.50579,194.03747 736.41426,193.6357 737.34375,193.28125 C 738.27323,192.92681 739.21455,192.61663 740.1875,192.34375 C 741.16045,192.07085 742.1763,191.84287 743.1875,191.65625 C 744.19869,191.46961 745.20581,191.31442 746.25,191.21875 C 747.29422,191.12311 748.36553,191.09375 749.4375,191.09375 C 749.62867,191.09375 749.81065,191.12292 750,191.125 L 750,129.46875 C 749.80752,129.46558 749.63082,129.40625 749.4375,129.40625 C 732.28579,129.40626 718.34374,141.94133 718.34375,157.40625 C 718.34376,157.53583 718.37307,157.68335 718.375,157.8125 L 718.34375,157.8125 C 718.33102,158.64489 718.27916,159.46781 718.1875,160.28125 C 718.08138,161.22274 717.92573,162.15075 717.71875,163.0625 C 717.51176,163.97426 717.27139,164.87274 716.96875,165.75 C 716.66609,166.62727 716.29936,167.47444 715.90625,168.3125 C 715.51314,169.15059 715.07208,169.9871 714.59375,170.78125 C 714.11542,171.5754 713.58963,172.31698 713.03125,173.0625 C 712.47286,173.80805 711.88321,174.55781 711.25,175.25 C 710.6168,175.94221 709.9528,176.58461 709.25,177.21875 C 708.54719,177.8529 707.79844,178.45986 707.03125,179.03125 C 706.26406,179.60265 705.48262,180.15235 704.65625,180.65625 C 703.82986,181.16017 702.97407,181.63082 702.09375,182.0625 C 701.2134,182.4942 700.3041,182.89519 699.375,183.25 C 698.44592,183.6048 697.50389,183.91435 696.53125,184.1875 C 695.5586,184.46068 694.54221,184.68817 693.53125,184.875 C 692.52029,185.06181 691.51284,185.18548 690.46875,185.28125 C 689.42467,185.37702 688.35323,185.4375 687.28125,185.4375 C 686.20927,185.43748 685.16921,185.37702 684.125,185.28125 C 683.08079,185.18548 682.04244,185.06181 681.03125,184.875 C 680.02006,184.68817 679.03545,184.46068 678.0625,184.1875 C 677.08955,183.91435 676.11698,183.60479 675.1875,183.25 C 674.258,182.8952 673.34954,182.49421 672.46875,182.0625 C 671.58798,181.63081 670.73311,181.16016 669.90625,180.65625 C 669.0794,180.15236 668.26769,179.60264 667.5,179.03125 C 666.73228,178.45987 666.01581,177.85291 665.3125,177.21875 C 664.60917,176.5846 663.94622,175.94222 663.3125,175.25 C 662.67882,174.5578 662.05885,173.80804 661.5,173.0625 C 660.94113,172.31699 660.41628,171.57541 659.9375,170.78125 C 659.45871,169.98709 659.04975,169.15058 658.65625,168.3125 C 658.26276,167.47445 657.89672,166.62727 657.59375,165.75 C 657.29077,164.87274 657.05096,163.97425 656.84375,163.0625 C 656.63656,162.15076 656.48121,161.22275 656.375,160.28125 C 656.28323,159.4678 656.2315,158.64488 656.21875,157.8125 L 656.1875,157.8125 C 656.18945,157.68335 656.21875,157.53584 656.21875,157.40625 C 656.21874,141.94134 642.27673,129.40624 625.125,129.40625 C 607.97327,129.40626 594.06249,141.94133 594.0625,157.40625 C 594.0625,157.53585 594.09181,157.68334 594.09375,157.8125 L 594.0625,157.8125 C 594.04975,158.64489 593.99801,159.46781 593.90625,160.28125 C 593.80003,161.22274 593.6447,162.15075 593.4375,163.0625 C 593.2303,163.97426 592.99047,164.87274 592.6875,165.75 C 592.38454,166.62727 592.0185,167.47444 591.625,168.3125 C 591.23151,169.15059 590.7913,169.9871 590.3125,170.78125 C 589.83372,171.5754 589.30887,172.31698 588.75,173.0625 C 588.19115,173.80805 587.60244,174.55781 586.96875,175.25 C 586.33504,175.94221 585.67207,176.58461 584.96875,177.21875 C 584.26542,177.8529 583.51772,178.45986 582.75,179.03125 C 581.98231,179.60265 581.1706,180.15235 580.34375,180.65625 C 579.51689,181.16017 578.69328,181.63082 577.8125,182.0625 C 576.93171,182.4942 576.02324,182.89519 575.09375,183.25 C 574.16426,183.6048 573.19169,183.91435 572.21875,184.1875 C 571.24579,184.46068 570.2612,184.68817 569.25,184.875 C 568.23882,185.06181 567.20046,185.18548 566.15625,185.28125 C 565.11205,185.37702 564.07198,185.4375 563,185.4375 C 561.92802,185.43748 560.85658,185.37702 559.8125,185.28125 C 558.76842,185.18548 557.76096,185.06181 556.75,184.875 C 555.73904,184.68817 554.72265,184.46068 553.75,184.1875 C 552.77739,183.91435 551.83534,183.60479 550.90625,183.25 C 549.97715,182.8952 549.06785,182.49421 548.1875,182.0625 C 547.30718,181.63081 546.45137,181.16016 545.625,180.65625 C 544.79863,180.15236 544.01719,179.60264 543.25,179.03125 C 542.48281,178.45987 541.73404,177.85291 541.03125,177.21875 C 540.32846,176.5846 539.66445,175.94222 539.03125,175.25 C 538.39805,174.5578 537.77713,173.80804 537.21875,173.0625 C 536.66037,172.31699 536.16584,171.57541 535.6875,170.78125 C 535.20916,169.98709 534.76809,169.15058 534.375,168.3125 C 533.9819,167.47445 533.61515,166.62727 533.3125,165.75 C 533.00986,164.87274 532.76948,163.97425 532.5625,163.0625 C 532.35553,162.15076 532.19985,161.22275 532.09375,160.28125 C 532.0021,159.4678 531.95022,158.64488 531.9375,157.8125 L 531.90625,157.8125 C 531.90819,157.68336 531.9375,157.53582 531.9375,157.40625 C 531.9375,141.94134 517.99549,129.40624 500.84375,129.40625 C 483.69203,129.40626 469.78126,141.94133 469.78125,157.40625 C 469.78125,157.53583 469.7793,157.68335 469.78125,157.8125 L 469.75,157.8125 C 469.73727,158.64489 469.71666,159.46781 469.625,160.28125 C 469.51891,161.22274 469.36323,162.15075 469.15625,163.0625 C 468.94927,163.97426 468.67764,164.87274 468.375,165.75 C 468.07236,166.62727 467.73685,167.47444 467.34375,168.3125 C 466.95065,169.15059 466.5096,169.9871 466.03125,170.78125 C 465.55291,171.5754 465.02713,172.31698 464.46875,173.0625 C 463.91038,173.80805 463.3207,174.55781 462.6875,175.25 C 462.0543,175.94221 461.3903,176.58461 460.6875,177.21875 C 459.9847,177.8529 459.23594,178.45986 458.46875,179.03125 C 457.70156,179.60265 456.88887,180.15235 456.0625,180.65625 C 455.23613,181.16017 454.41159,181.63082 453.53125,182.0625 C 452.65091,182.4942 451.7416,182.89519 450.8125,183.25 C 449.88341,183.6048 448.91014,183.91435 447.9375,184.1875 C 446.96487,184.46068 445.97971,184.68817 444.96875,184.875 C 443.95779,185.06181 442.91908,185.18548 441.875,185.28125 C 440.83092,185.37702 439.79073,185.4375 438.71875,185.4375 C 437.64677,185.43748 436.57545,185.37702 435.53125,185.28125 C 434.48705,185.18548 433.47994,185.06181 432.46875,184.875 C 431.45756,184.68817 430.4417,184.46068 429.46875,184.1875 C 428.4958,183.91435 427.55448,183.60479 426.625,183.25 C 425.69552,182.8952 424.78704,182.49421 423.90625,182.0625 C 423.02547,181.63081 422.17061,181.16016 421.34375,180.65625 C 420.51689,180.15236 419.7052,179.60264 418.9375,179.03125 C 418.1698,178.45987 417.45332,177.85291 416.75,177.21875 C 416.04668,176.5846 415.35246,175.94222 414.71875,175.25 C 414.08505,174.5578 413.49636,173.80804 412.9375,173.0625 C 412.37864,172.31699 411.85379,171.57541 411.375,170.78125 C 410.89621,169.98709 410.45599,169.15058 410.0625,168.3125 C 409.66901,167.47445 409.33421,166.62727 409.03125,165.75 C 408.72829,164.87274 408.45721,163.97425 408.25,163.0625 C 408.0428,162.15076 407.88746,161.22275 407.78125,160.28125 C 407.68949,159.4678 407.669,158.64488 407.65625,157.8125 L 407.625,157.8125 C 407.62695,157.68335 407.625,157.53584 407.625,157.40625 C 407.625,141.94134 393.71423,129.40624 376.5625,129.40625 z" style="opacity:0.98999999;fill:#0f47af;fill-opacity:1;fill-rule:nonzero;stroke:none;stroke-width:60;stroke-linecap:round;stroke-linejoin:round;marker:none;marker-start:none;marker-mid:none;marker-end:none;stroke-miterlimit:4;stroke-dasharray:none;stroke-dashoffset:0;stroke-opacity:1;visibility:visible;display:inline;overflow:visible;enable-background:accumulate"/>
  <g id="g3192">
    <rect y="0" x="0" height="250" width="375" id="rect3160" style="opacity:0.98999999;fill:#fcdd09;fill-opacity:1;stroke:none;stroke-width:2.03133869;stroke-miterlimit:4;stroke-dasharray:none;stroke-opacity:1"/>
    <rect y="250" x="375" height="250" width="375" id="rect4131" style="opacity:0.98999999;fill:#fcdd09;fill-opacity:1;stroke:none;stroke-width:2.03133869;stroke-miterlimit:4;stroke-dasharray:none;stroke-opacity:1"/>
    <path id="rect4133" d="M 0.3770423,51.03125 L 0.3770423,98.9375 L 374.59154,98.9375 L 374.59154,51.03125 L 0.3770423,51.03125 z M 0,151.0625 L 0,198.96875 L 375,198.96875 L 375,151.0625 L 0,151.0625 z" style="opacity:0.98999999;fill:#ff0000;fill-opacity:1;stroke:none;stroke-width:2.03133869;stroke-miterlimit:4;stroke-dasharray:none;stroke-opacity:1"/>
    <path style="opacity:0.98999999;fill:#ff0000;fill-opacity:1;stroke:none;stroke-width:2.03133869;stroke-miterlimit:4;stroke-dasharray:none;stroke-opacity:1" d="M 375.37704,301.03125 L 375.37704,348.9375 L 749.59154,348.9375 L 749.59154,301.03125 L 375.37704,301.03125 z M 375,401.0625 L 375,448.96875 L 750,448.96875 L 750,401.0625 L 375,401.0625 z" id="path3182"/>
  </g>
</svg>