<svg xmlns="http://www.w3.org/2000/svg" class="icon icon-tabler icon-tabler-cloud-rain" width="80" height="80" viewBox="0 0 24 24" stroke-width="2" stroke="#039dfc" fill="none" stroke-linecap="round" stroke-linejoin="round">
   <path stroke="none" d="M0 0h24v24H0z" fill="none"></path>
   <path fill="#3c3c3d" d="M7 18a4.6 4.4 0 0 1 0 -9a5 4.5 0 0 1 11 2h1a3.5 3.5 0 0 1 0 7"></path>
   <path d="M9 19l10 18v2m0 -2v2m0 1v2"></path>
   <path d="M12.5 19l10 18v2m0 -2v2m0 1v2"></path>
   <path d="M16.5 19l10 18v2m0 -2v2m0 1v2"></path>
</svg>